<svg width="143" height="143" viewBox="0 0 143 143" fill="none" xmlns="http://www.w3.org/2000/svg"><circle cx="71.5" cy="71.5" r="71.5" fill="#E54F6D"/><circle cx="72.0629" cy="72.063" r="60.8032" fill="#202020"/><path d="M84.9482 80.89C86.4799 79.8431 88.6056 78.9369 88.6056 78.9369C88.6056 78.9369 82.5569 80.0306 76.5394 80.5306C69.1778 81.14 61.2691 81.265 57.2991 80.7337C47.9056 79.4837 62.4569 76.0307 62.4569 76.0307C62.4569 76.0307 56.8146 75.6557 49.8593 78.9994C41.6537 82.9681 70.1781 84.7805 84.9482 80.89ZM71.6004 75.8744C68.6307 69.2026 58.612 63.3433 71.6004 53.0935C87.8022 40.3124 79.4934 32 79.4934 32C82.8538 45.2029 67.6773 49.2029 62.1912 57.4059C58.4557 63.0152 64.0199 69.0308 71.6004 75.8744ZM89.5121 48.3435C89.5277 48.3435 62.1287 55.1872 75.2109 70.2495C79.0714 74.6869 74.1949 78.6869 74.1949 78.6869C74.1949 78.6869 83.9948 73.6244 79.4934 67.2964C75.289 61.3902 72.0693 58.4528 89.5121 48.3435ZM88.5587 90.6086C88.4733 90.7575 88.3681 90.8941 88.2461 91.0148C108.299 85.7493 100.922 72.437 91.3408 75.8119C90.8233 76.002 90.3762 76.3454 90.0592 76.7963C90.6186 76.5939 91.1936 76.4371 91.7784 76.3275C96.6237 75.3119 103.579 82.8118 88.5587 90.6086ZM95.9297 100.343C95.9297 100.343 98.196 102.202 93.4446 103.655C84.3949 106.39 55.808 107.218 47.8681 103.765C45.0079 102.53 50.3689 100.796 52.0569 100.437C53.8074 100.062 54.8234 100.124 54.8234 100.124C51.6505 97.8898 34.3014 104.515 46.0082 106.405C77.9304 111.593 104.213 104.077 95.9297 100.343ZM60.9877 93.8742C48.6871 97.3116 68.4744 104.405 84.1355 97.7023C82.6081 97.109 81.1336 96.3877 79.7279 95.546C72.7413 96.8741 69.506 96.9679 63.1603 96.2492C57.9243 95.6554 60.9877 93.8742 60.9877 93.8742ZM89.0901 109.061C76.7895 111.374 61.6129 111.108 52.6258 109.624C52.6258 109.608 54.4701 111.14 63.9418 111.749C78.3524 112.671 100.484 111.233 101 104.421C101 104.421 99.9997 106.999 89.0901 109.061ZM82.2755 87.1555C73.0227 88.9367 67.6617 88.8899 60.894 88.1868C55.658 87.6399 59.0809 85.1087 59.0809 85.1087C45.5143 89.6086 66.6145 94.7023 85.5734 89.1555C84.3481 88.723 83.2253 88.0421 82.2755 87.1555Z" fill="#E54F6D"/></svg>
