<svg xmlns="http://www.w3.org/2000/svg" width="18" height="19"><path fill="#F5FAFA" d="M16.714.305H1.282C.575.305 0 .888 0 1.603v15.404c0 .716.575 1.298 1.282 1.298h15.432c.707 0 1.286-.582 1.286-1.298V1.603c0-.715-.579-1.298-1.286-1.298ZM5.44 15.734H2.772v-8.59h2.672v8.59H5.44ZM4.106 5.97a1.548 1.548 0 0 1 0-3.093 1.55 1.55 0 0 1 1.547 1.546c0 .856-.691 1.547-1.547 1.547Zm11.335 9.764h-2.668v-4.179c0-.996-.02-2.278-1.386-2.278-1.39 0-1.604 1.085-1.604 2.206v4.25H7.116v-8.59h2.559v1.174h.036c.358-.675 1.23-1.386 2.527-1.386 2.7 0 3.203 1.78 3.203 4.094v4.709Z"/></svg>