<svg width="143" height="143" viewBox="0 0 143 143" fill="none" xmlns="http://www.w3.org/2000/svg"><circle cx="71.5" cy="71.5" r="71.5" fill="#00A878"/><circle cx="72.063" cy="72.063" r="60.8032" fill="#202020"/><path d="M72 109.406C70.983 109.406 69.9508 109.139 69.0553 108.634L59.6901 103.216C58.2937 102.445 58.9767 102.177 59.4321 102.029C61.2991 101.391 61.6785 101.257 63.6669 100.144C63.8794 100.025 64.1526 100.07 64.3651 100.203L71.5598 104.374C71.8178 104.523 72.1821 104.523 72.4249 104.374L100.46 88.5508C100.718 88.4024 100.885 88.1055 100.885 87.8086V56.1617C100.885 55.85 100.718 55.568 100.445 55.4047L72.4249 39.5961C72.1669 39.4477 71.8178 39.4477 71.5598 39.5961L43.5553 55.4196C43.2821 55.568 43.1151 55.8649 43.1151 56.1766V87.8086C43.1151 88.1055 43.2821 88.4024 43.5553 88.536L51.2357 92.8703C55.4098 94.9039 57.9598 92.5141 57.9598 90.0946V58.8633C57.9598 58.418 58.3241 58.0766 58.7794 58.0766H62.3312C62.7714 58.0766 63.1508 58.418 63.1508 58.8633V90.1094C63.1508 95.5422 60.1151 98.6594 54.8482 98.6594C53.2241 98.6594 51.9491 98.6594 48.3973 96.9375L41.0508 92.7961C39.2294 91.7719 38.1062 89.8571 38.1062 87.7938V56.1617C38.1062 54.1133 39.2294 52.1836 41.0508 51.1594L69.0553 35.336C70.8312 34.3563 73.1839 34.3563 74.9446 35.336L102.979 51.1742C104.801 52.1985 105.924 54.1133 105.924 56.1766V87.8086C105.924 89.8571 104.801 91.7719 102.979 92.811L74.9446 108.634C74.0491 109.139 73.0321 109.406 72 109.406ZM94.6312 78.2196C94.6312 72.2969 90.533 70.7235 81.9267 69.6102C73.2142 68.4821 72.3339 67.9032 72.3339 65.9141C72.3339 64.2664 73.0776 62.0696 79.5285 62.0696C85.2812 62.0696 87.4062 63.2867 88.2865 67.0867C88.3624 67.443 88.6964 67.7102 89.0758 67.7102H92.7187C92.9464 67.7102 93.1589 67.6211 93.3107 67.4578C93.4624 67.2946 93.5383 67.0719 93.5232 66.8492C92.9615 60.3032 88.5142 57.2602 79.5285 57.2602C71.5294 57.2602 66.7633 60.5555 66.7633 66.0922C66.7633 72.0891 71.5142 73.7516 79.1794 74.4938C88.3624 75.3696 89.0758 76.6907 89.0758 78.4571C89.0758 81.5149 86.5562 82.8211 80.6517 82.8211C73.2294 82.8211 71.6053 80.9953 71.0589 77.3883C70.9982 77.0024 70.6642 76.7203 70.2544 76.7203H66.6267C66.1714 76.7203 65.8223 77.0766 65.8223 77.5071C65.8223 82.1235 68.3874 87.6305 80.6669 87.6305C89.5312 87.6157 94.6312 84.1868 94.6312 78.2196Z" fill="#00A878"/></svg>
