<svg width="143" height="143" viewBox="0 0 143 143" fill="none" xmlns="http://www.w3.org/2000/svg"><circle cx="71.5" cy="71.5" r="71.5" fill="#00BCD4"/><circle cx="72.0629" cy="72.063" r="60.8032" fill="#202020"/><path d="M95.2598 83.6119C94.4688 83.8771 93.6777 84.1275 92.8867 84.3632C93.0186 84.9083 93.1357 85.4533 93.2529 85.9984C95.0547 94.7783 93.8682 101.835 89.8691 104.162C86.0166 106.387 79.7324 104.074 73.375 98.5053C72.7451 97.9603 72.1299 97.3857 71.5439 96.8112C71.1484 97.1942 70.7383 97.5772 70.3281 97.9455C63.6631 103.897 56.9834 106.401 52.9844 104.059C49.1465 101.82 48.0039 95.176 49.6152 86.8675C49.7764 86.0426 49.9521 85.2324 50.1572 84.4074C49.2197 84.1422 48.2969 83.8476 47.4326 83.5383C39.6104 80.813 34 76.5114 34 72.0625C34 67.4663 39.9766 62.8554 48.1064 60.0565C48.7656 59.8355 49.4248 59.6145 50.0986 59.423C49.8789 58.5391 49.6885 57.67 49.5127 56.7714C47.9746 48.5955 49.1758 42.1137 53.0137 39.8892C56.9688 37.5912 63.6191 39.9482 70.0938 45.6492C70.6064 46.1059 71.1191 46.5773 71.6318 47.0781C72.2764 46.4447 72.9502 45.8407 73.624 45.2515C79.8936 39.8303 86.0898 37.6353 89.9131 39.8598C93.8682 42.1579 95.1572 49.1258 93.4873 57.6111C93.3555 58.2592 93.209 58.9222 93.0479 59.5998C93.5166 59.7324 93.9707 59.8797 94.4248 60.027C102.877 62.8407 109 67.3927 109 72.0625C109 76.5261 103.229 80.8572 95.2598 83.6119ZM75.4404 96.1188C80.8896 100.892 85.9727 102.763 88.2871 101.422C90.7627 99.9932 91.7148 94.2185 90.1621 86.6318C90.0596 86.131 89.957 85.6448 89.8252 85.1587C86.5732 85.8953 83.2773 86.4256 79.9668 86.7202C78.0625 89.4603 75.9824 92.0824 73.7266 94.5426C74.2979 95.0876 74.8545 95.6032 75.4404 96.1188ZM58.4922 64.417C59.2393 63.1353 60.001 61.8537 60.8066 60.6015C58.5215 60.852 56.251 61.2203 54.0098 61.7064C54.6543 63.8277 55.46 66.0227 56.3975 68.2618C57.0713 66.9655 57.7598 65.6839 58.4922 64.417ZM54.0537 82.1388C56.1631 82.6102 58.4043 82.9932 60.7334 83.2878C59.957 82.0651 59.1953 80.813 58.4775 79.5461C57.7598 78.2939 57.0566 77.0123 56.3975 75.7159C55.4746 77.9109 54.6982 80.0617 54.0537 82.1388ZM58.0674 71.9889C59.0342 74.0218 60.0889 76.0105 61.2021 77.9698C62.3154 79.9291 63.5166 81.8294 64.7764 83.7003C66.9736 83.8623 69.2148 83.9507 71.5 83.9507C73.7852 83.9507 76.041 83.8623 78.2236 83.7003C79.4688 81.8442 80.6553 79.9438 81.7832 77.9993C82.9111 76.0547 83.9658 74.066 84.9619 72.0478C83.9805 70.0149 82.9258 68.0114 81.7979 66.0374C80.6846 64.0781 79.498 62.1778 78.2529 60.2922C76.0703 60.1301 73.7998 60.0565 71.5 60.0565C69.2002 60.0565 66.9736 60.1301 64.8203 60.2627C63.5459 62.1336 62.3447 64.0487 61.2168 66.0079C60.0889 67.9672 59.0488 69.9559 58.0674 71.9889ZM84.5225 64.4464C85.2695 65.7428 85.9727 67.0539 86.6611 68.3797C87.5986 66.2436 88.4189 64.0781 89.1367 61.8537C86.8662 61.3381 84.5664 60.9404 82.252 60.6752C83.043 61.9126 83.79 63.1795 84.5225 64.4464ZM86.6318 75.7159C85.9434 77.0123 85.2402 78.3086 84.5078 79.5755C83.79 80.8277 83.043 82.0651 82.2666 83.2878C84.625 82.9932 86.8809 82.5955 88.9902 82.1093C88.3164 79.9291 87.5254 77.8078 86.6318 75.7159ZM71.5293 92.2887C73.0674 90.6093 74.5176 88.8415 75.8652 87.0149C72.9648 87.1474 70.0498 87.1474 67.1494 87.0149C68.585 88.9152 70.0645 90.683 71.5293 92.2887ZM54.5371 101.319C56.998 102.763 62.4619 100.7 68.2188 95.5738C68.585 95.2497 68.9512 94.8961 69.332 94.5426C67.0615 92.0824 64.9668 89.4603 63.0479 86.7202C59.7373 86.4256 56.4561 85.91 53.2041 85.1882C53.0137 85.9395 52.8525 86.7055 52.6914 87.4715C51.3145 94.6015 52.2227 99.9784 54.5371 101.319ZM50.9482 62.4871C50.333 62.6639 49.7324 62.8554 49.1318 63.0617C46.0117 64.0487 42.4668 65.6102 39.9033 67.6579C38.4238 68.689 37.4277 70.28 37.1494 72.0625C37.1494 74.7584 41.7783 78.2055 48.458 80.5478C49.293 80.8424 50.1426 81.1076 50.9922 81.358C51.9883 78.1613 53.1895 75.0235 54.5811 71.9889C53.1748 68.91 51.959 65.728 50.9482 62.4871ZM68.0283 48.0504C65.6113 45.826 62.8135 44.0582 59.7666 42.8503C58.1406 42.0695 56.2656 41.9958 54.5957 42.6587C52.2666 44.014 51.2998 49.2142 52.6182 56.2116C52.7793 57.0365 52.9551 57.8615 53.1602 58.6717C56.4414 57.9646 59.752 57.4785 63.1064 57.2281C65.04 54.4733 67.1641 51.8364 69.4346 49.3615C68.9658 48.9048 68.4971 48.4629 68.0283 48.0504ZM71.6172 51.6301C70.123 53.2506 68.6289 55.0478 67.1787 56.9776C68.585 56.9187 70.0352 56.8892 71.5 56.8892C73.0088 56.8892 74.4883 56.9187 75.9531 56.9924C74.6055 55.1215 73.1553 53.339 71.6172 51.6301ZM90.7627 47.2107C90.6309 45.4135 89.752 43.7341 88.3457 42.5998C86.0166 41.2445 81.0508 43.0123 75.6895 47.6379C75.0742 48.1683 74.459 48.7428 73.8291 49.332C76.0703 51.8216 78.1357 54.4586 80.0107 57.2281C83.3652 57.5079 86.7051 58.0235 90.001 58.7748C90.1475 58.1709 90.2793 57.5669 90.3965 56.9776C91.1143 53.7956 91.2314 50.4811 90.7627 47.2107ZM93.4287 63.0469C93.0186 62.9144 92.6084 62.7818 92.1836 62.6639C91.1582 65.8754 89.8984 69.0131 88.4482 72.0625C89.8545 75.0677 91.041 78.1613 92.0371 81.3286C92.7988 81.1076 93.5312 80.8719 94.2344 80.6362C101.061 78.2792 105.851 74.7731 105.851 72.092C105.851 69.2046 100.738 65.4776 93.4287 63.0469ZM71.5 65.2566C75.2061 65.2566 78.209 68.2766 78.209 72.0036C78.209 75.7306 75.2061 78.7506 71.5 78.7506C67.7939 78.7506 64.791 75.7306 64.791 72.0036C64.791 68.2766 67.7939 65.2566 71.5 65.2566Z" fill="#00BCD4"/></svg>
